<?xml version="1.0" standalone="no"?>
<!DOCTYPE svg PUBLIC "-//W3C//DTD SVG 20010904//EN"
 "http://www.w3.org/TR/2001/REC-SVG-20010904/DTD/svg10.dtd">
<svg version="1.0" xmlns="http://www.w3.org/2000/svg"
 width="217.000000pt" height="300.000000pt" viewBox="0 0 217.000000 300.000000"
 preserveAspectRatio="xMidYMid meet">
<metadata>
Created by potrace 1.16, written by Peter Selinger 2001-2019
</metadata>
<g transform="translate(0.000000,300.000000) scale(0.100000,-0.100000)"
fill="#000000" stroke="none">
<path d="M213 2984 c-3 -9 -1 -51 5 -93 12 -82 48 -171 96 -234 40 -52 316
-308 325 -302 5 2 11 56 15 120 8 131 19 105 -107 254 -130 152 -168 189 -237
230 -76 45 -88 48 -97 25z"/>
<path d="M1935 2964 c-68 -35 -134 -87 -170 -135 -16 -22 -70 -85 -120 -140
l-90 -100 0 -129 c0 -72 4 -130 8 -130 20 0 308 279 346 335 34 51 68 136 81
204 12 63 13 121 3 121 -5 0 -30 -12 -58 -26z m45 -16 c-2 -49 -32 -174 -55
-224 -22 -48 -56 -88 -188 -217 -88 -86 -161 -156 -163 -155 -1 2 -4 53 -5
114 l-4 111 115 129 c151 168 173 190 234 224 57 33 66 36 66 18z"/>
<path d="M70 2659 c0 -36 126 -282 162 -315 46 -44 360 -296 363 -292 2 2 -5
68 -14 148 l-18 144 -74 69 c-108 101 -181 152 -301 213 -59 30 -110 54 -113
54 -3 0 -5 -9 -5 -21z"/>
<path d="M2024 2620 c-88 -44 -195 -122 -307 -222 l-74 -67 -6 -88 c-4 -48
-13 -112 -20 -140 -11 -43 -12 -53 -1 -53 11 0 163 114 337 254 51 41 142 208
177 329 12 38 -10 36 -106 -13z m76 -30 c-39 -99 -112 -236 -138 -258 -74 -63
-324 -254 -328 -249 -3 2 0 24 5 48 5 24 13 79 17 122 l7 77 66 59 c155 136
324 248 378 250 9 1 7 -13 -7 -49z"/>
<path d="M674 2514 c-3 -31 -4 -93 -1 -137 l5 -81 133 -125 c73 -69 140 -131
149 -138 15 -10 25 -4 71 42 30 30 54 61 54 68 0 14 -384 427 -397 427 -3 0
-10 -25 -14 -56z"/>
<path d="M1339 2366 l-166 -172 -6 -124 c-4 -68 -6 -125 -4 -126 1 -1 56 50
123 114 66 64 147 143 180 174 l61 57 6 91 c6 100 0 160 -17 159 -6 0 -86 -78
-177 -173z m179 43 l-6 -112 -163 -157 c-90 -87 -165 -157 -167 -155 -1 1 1
49 4 106 l7 104 156 161 c86 89 160 162 165 163 5 0 7 -48 4 -110z"/>
<path d="M54 2314 c-12 -5 -4 -24 50 -119 72 -126 89 -146 175 -208 213 -156
315 -216 298 -174 -46 109 -59 149 -66 203 -4 35 -9 65 -12 67 -29 26 -219
162 -242 174 -37 19 -166 63 -181 62 -6 0 -16 -3 -22 -5z"/>
<path d="M592 2247 c7 -64 35 -217 41 -223 18 -18 185 -148 194 -151 11 -4 77
60 97 94 6 12 -32 56 -160 184 -93 93 -171 169 -174 169 -4 0 -3 -33 2 -73z"/>
<path d="M2105 2300 c-99 -18 -164 -52 -296 -156 l-106 -83 -6 -54 c-3 -30
-19 -89 -36 -132 -18 -43 -30 -80 -27 -82 8 -8 70 30 223 135 165 114 195 146
267 289 36 72 43 94 29 92 -5 -1 -26 -5 -48 -9z m35 -15 c0 -25 -115 -211
-151 -244 -34 -32 -320 -224 -325 -219 -2 3 7 34 20 70 14 36 28 89 32 117 l7
51 118 89 c96 73 132 94 196 115 79 26 103 30 103 21z"/>
<path d="M1414 2108 l-182 -183 -6 -85 c-3 -47 -9 -95 -12 -107 -11 -41 20
-26 97 48 41 39 117 109 170 155 l95 83 22 119 c20 108 21 152 3 152 -3 0 -88
-82 -187 -182z m167 20 l-21 -103 -53 -45 c-28 -25 -102 -91 -163 -146 l-110
-102 3 92 4 91 177 172 c110 107 178 167 180 158 2 -8 -6 -61 -17 -117z"/>
<path d="M1020 2040 c-67 -69 -133 -141 -147 -161 -26 -40 -39 -107 -47 -249
l-6 -95 26 30 c43 49 58 69 75 95 10 14 26 34 37 46 11 12 54 60 95 107 l74
85 13 115 c7 63 10 122 7 133 -3 15 -29 -6 -127 -106z m106 -4 c-10 -118 -18
-139 -79 -206 -30 -32 -82 -93 -117 -136 -99 -123 -93 -122 -85 -24 13 175 12
174 146 320 66 71 125 130 131 130 7 0 9 -26 4 -84z"/>
<path d="M530 2022 c0 -40 32 -129 76 -213 28 -52 48 -78 78 -97 23 -14 57
-38 76 -54 19 -15 37 -28 41 -28 4 0 10 37 14 81 3 45 9 87 11 93 6 15 -264
246 -286 246 -6 0 -10 -13 -10 -28z"/>
<path d="M73 1999 c15 -75 80 -182 162 -265 114 -117 315 -242 315 -196 0 4
-11 41 -24 82 -13 41 -29 102 -36 135 -7 33 -13 65 -15 71 -4 13 -339 190
-379 200 -29 7 -29 6 -23 -27z"/>
<path d="M1567 1961 c-49 -38 -144 -121 -211 -185 l-123 -115 -6 -92 c-4 -51
-5 -94 -2 -97 2 -3 35 22 72 55 80 71 241 193 254 193 21 0 129 247 129 297 0
25 -26 12 -113 -56z m78 -23 c-10 -29 -33 -83 -52 -120 -29 -56 -48 -77 -107
-120 -39 -28 -111 -85 -160 -126 l-88 -75 7 79 6 79 97 93 c125 120 305 267
310 253 2 -6 -4 -35 -13 -63z"/>
<path d="M1945 1931 c-99 -50 -188 -97 -198 -105 -12 -9 -23 -41 -32 -88 -16
-86 -29 -133 -56 -195 l-19 -45 25 6 c47 12 196 107 267 171 98 89 150 162
178 249 12 40 21 79 19 85 -3 8 -69 -20 -184 -78z m165 40 c0 -10 -19 -56 -41
-101 -60 -120 -170 -223 -341 -320 -32 -17 -58 -30 -58 -27 0 2 11 34 25 71
14 36 30 97 36 136 7 39 19 76 28 84 17 15 330 175 344 176 4 0 7 -8 7 -19z"/>
<path d="M1068 1753 c-63 -71 -144 -166 -181 -211 l-67 -84 0 -94 c0 -52 3
-94 8 -93 4 0 43 43 86 94 43 52 119 136 168 187 97 101 112 132 117 239 1 30
4 62 7 72 14 45 -34 7 -138 -110z m117 50 c-16 -132 -20 -141 -113 -238 -48
-49 -118 -127 -156 -173 -38 -45 -71 -82 -73 -82 -1 0 -3 34 -3 75 l0 74 67
83 c77 95 273 318 280 318 2 0 1 -26 -2 -57z"/>
<path d="M517 1783 c-17 -16 -8 -56 50 -208 l34 -90 91 -60 c50 -33 95 -61 99
-63 5 -2 9 50 9 115 0 134 4 125 -91 190 -25 17 -51 38 -58 47 -12 14 -112 76
-123 76 -3 0 -8 -3 -11 -7z"/>
<path d="M1630 1750 c-85 -56 -142 -100 -235 -180 -80 -69 -95 -87 -100 -118
-4 -20 -17 -75 -31 -121 -13 -47 -22 -86 -20 -88 2 -2 83 49 180 113 191 126
192 127 233 249 48 142 54 175 31 175 -7 0 -33 -14 -58 -30z m50 -2 c0 -24
-28 -118 -56 -188 l-28 -71 -160 -107 c-89 -59 -164 -108 -168 -110 -4 -2 1
22 12 53 11 31 22 79 26 106 6 46 11 53 88 118 94 80 267 211 278 211 5 0 8
-6 8 -12z"/>
<path d="M70 1630 c0 -30 50 -107 114 -177 59 -62 91 -88 164 -126 88 -46 201
-91 209 -83 3 2 -5 34 -16 71 -12 37 -24 92 -28 123 l-6 55 -151 73 c-142 69
-155 74 -218 74 -39 0 -68 -4 -68 -10z"/>
<path d="M1975 1611 c-27 -10 -99 -45 -159 -77 l-109 -59 -14 -65 c-7 -36 -22
-91 -34 -123 -12 -32 -19 -60 -16 -64 8 -8 172 67 258 117 36 21 82 58 101 82
20 24 46 54 58 68 36 41 72 109 66 125 -8 21 -88 19 -151 -4z m136 -19 c-19
-35 -99 -138 -140 -180 -29 -30 -82 -63 -173 -108 -72 -35 -133 -63 -134 -61
-2 2 5 25 15 53 11 27 25 78 32 112 l12 64 140 69 c125 62 146 69 199 69 53 0
58 -2 49 -18z"/>
<path d="M1137 1568 c-62 -66 -208 -234 -270 -311 l-47 -58 0 -89 c0 -50 4
-90 9 -90 5 0 44 44 87 98 74 93 150 182 227 265 36 40 51 81 62 180 9 73 -3
74 -68 5z m52 -5 c-3 -88 -23 -131 -99 -215 -41 -45 -114 -131 -162 -191 l-88
-109 0 75 c0 76 0 77 47 134 25 32 92 109 147 171 56 63 110 124 121 137 26
31 35 31 34 -2z"/>
<path d="M535 1418 c8 -29 29 -90 46 -135 l32 -82 87 -46 c49 -25 91 -45 94
-45 3 0 6 45 6 99 l0 100 -122 75 c-166 101 -160 100 -143 34z"/>
<path d="M1599 1416 c-97 -58 -273 -177 -301 -204 -18 -16 -28 -36 -28 -53 0
-15 -9 -56 -20 -90 -10 -35 -17 -65 -15 -67 3 -3 44 18 92 45 49 28 127 71
176 97 95 52 103 61 143 180 24 69 31 126 17 126 -5 0 -33 -15 -64 -34z m61 5
c0 -14 -51 -163 -66 -192 -8 -16 -41 -41 -86 -64 -40 -21 -111 -60 -157 -87
-46 -26 -86 -46 -89 -44 -2 3 1 20 6 38 6 18 14 52 17 76 8 49 16 57 234 199
127 83 141 90 141 74z"/>
<path d="M1151 1342 c-94 -95 -248 -270 -304 -343 -30 -40 -46 -123 -28 -149
8 -11 18 -5 52 35 60 70 251 260 283 281 32 20 55 64 84 154 30 96 34 120 20
120 -6 0 -55 -44 -107 -98z m83 16 c-32 -108 -63 -163 -115 -203 -27 -21 -104
-94 -169 -163 l-120 -125 0 41 c0 31 8 52 36 89 78 103 359 413 374 413 5 0 2
-24 -6 -52z"/>
<path d="M144 1315 c-7 -18 10 -46 82 -135 67 -83 128 -129 246 -185 138 -65
150 -62 107 28 -16 34 -34 88 -40 120 -10 51 -17 61 -48 81 -53 33 -157 74
-231 91 -83 19 -109 19 -116 0z"/>
<path d="M1920 1294 c-78 -17 -225 -85 -238 -111 -5 -10 -12 -37 -16 -61 -4
-24 -20 -73 -36 -110 -17 -36 -29 -69 -28 -74 3 -7 106 36 231 96 50 25 143
116 200 199 26 37 47 70 47 72 0 10 -97 3 -160 -11z m130 -3 c0 -17 -88 -127
-144 -179 -51 -49 -183 -121 -264 -147 l-23 -7 25 49 c13 27 30 77 37 112 13
62 13 63 74 96 72 39 140 62 220 74 33 5 63 9 68 10 4 0 7 -3 7 -8z"/>
<path d="M556 1153 c22 -93 74 -203 111 -235 10 -8 38 -23 63 -33 25 -9 51
-19 58 -22 9 -4 12 18 12 89 l0 94 -118 67 c-65 37 -121 67 -125 67 -4 0 -4
-12 -1 -27z"/>
<path d="M1225 1158 c-11 -6 -50 -36 -86 -67 -37 -31 -126 -105 -198 -166 -72
-60 -133 -119 -135 -130 -3 -11 -8 -38 -11 -59 -6 -38 -6 -39 14 -25 11 8 99
68 197 133 169 114 178 122 200 173 25 55 49 141 43 148 -2 2 -13 -1 -24 -7z
m-1 -45 c-3 -16 -17 -53 -31 -84 -24 -55 -29 -59 -197 -173 -95 -64 -175 -116
-178 -116 -2 0 -2 14 0 31 5 32 13 39 297 282 55 47 103 86 108 86 4 1 5 -11
1 -26z"/>
<path d="M1458 1061 c-92 -54 -174 -103 -182 -110 -8 -6 -17 -26 -20 -44 -3
-18 -24 -63 -46 -101 -22 -37 -34 -66 -27 -63 6 3 90 41 185 83 l173 78 35 55
c29 48 74 163 74 192 0 20 -32 5 -192 -90z m166 52 c-15 -59 -34 -104 -65
-152 -30 -45 -41 -53 -133 -92 -56 -23 -123 -53 -149 -66 -27 -14 -51 -22 -54
-20 -2 3 5 24 18 48 12 24 27 58 33 77 10 30 33 47 177 132 90 54 167 99 172
99 4 1 4 -11 1 -26z"/>
<path d="M190 1023 c1 -12 102 -128 141 -162 30 -26 279 -131 309 -131 5 0 -6
43 -23 95 l-31 94 -81 37 c-44 20 -106 45 -138 56 -58 18 -177 25 -177 11z"/>
<path d="M1896 1013 c-34 -5 -220 -78 -252 -98 -12 -8 -26 -33 -33 -61 -7 -26
-21 -64 -31 -85 -24 -46 -24 -49 -3 -49 20 0 240 87 267 106 56 39 166 162
166 186 0 8 -60 9 -114 1z m94 -12 c0 -18 -135 -153 -173 -172 -52 -27 -218
-91 -223 -87 -4 4 33 123 45 148 12 22 216 100 286 110 33 4 61 8 63 9 1 0 2
-3 2 -8z"/>
<path d="M1130 864 c-317 -203 -350 -227 -356 -253 -3 -14 -10 -39 -15 -55 -5
-16 -9 -31 -9 -33 0 -5 279 140 334 174 44 28 68 57 120 145 25 43 34 79 19
77 -5 0 -46 -25 -93 -55z m54 -24 c-50 -91 -81 -117 -244 -204 -85 -45 -156
-79 -158 -75 -2 4 1 21 5 38 7 27 37 49 208 160 110 71 204 130 208 130 5 1
-4 -22 -19 -49z"/>
<path d="M610 883 c0 -22 63 -149 86 -174 9 -10 29 -22 44 -28 29 -10 29 -9
35 37 3 26 7 62 10 80 4 31 1 34 -65 67 -78 39 -110 44 -110 18z"/>
<path d="M1480 847 c-52 -24 -135 -62 -185 -86 l-90 -42 -45 -84 c-24 -46 -41
-87 -38 -90 3 -4 17 0 30 8 12 8 93 41 178 72 117 44 163 66 186 90 42 42 92
175 67 175 -5 0 -51 -20 -103 -43z m76 -34 c-29 -88 -53 -105 -239 -176 -92
-36 -167 -62 -165 -58 2 3 16 33 33 67 l29 61 175 81 c97 45 177 79 179 77 2
-2 -3 -26 -12 -52z"/>
<path d="M346 738 c28 -54 121 -143 177 -171 63 -30 204 -74 213 -65 3 4 -13
37 -35 75 -23 38 -41 74 -41 81 0 6 -8 15 -17 20 -23 12 -285 92 -301 92 -9 0
-8 -9 4 -32z"/>
<path d="M1835 754 c-22 -7 -93 -29 -158 -49 l-118 -37 -20 -44 c-10 -25 -33
-66 -50 -91 l-32 -46 40 6 c151 25 267 91 339 197 26 39 46 72 43 74 -2 2 -22
-3 -44 -10z m4 -36 c-20 -38 -99 -116 -143 -142 -43 -25 -184 -72 -192 -63 -6
6 64 135 79 144 11 7 246 82 260 82 4 1 2 -9 -4 -21z"/>
<path d="M941 590 c-185 -92 -196 -99 -211 -136 -28 -64 -32 -84 -20 -84 6 0
78 29 159 65 82 36 153 65 159 65 19 0 132 158 132 185 0 12 -34 -3 -219 -95z
m189 63 c0 -5 -20 -34 -43 -66 -41 -57 -45 -59 -200 -127 -87 -39 -160 -70
-162 -70 -2 0 3 20 12 43 16 43 18 45 197 135 184 93 196 98 196 85z"/>
<path d="M1320 580 c-101 -39 -186 -70 -187 -70 -2 0 -3 -6 -3 -13 0 -8 -16
-44 -35 -80 -20 -37 -32 -67 -28 -67 4 0 46 14 93 31 47 17 122 44 168 59 86
29 92 33 146 115 35 53 53 95 39 95 -4 0 -91 -32 -193 -70z m170 33 c0 -12
-60 -99 -82 -120 -13 -11 -52 -29 -88 -40 -36 -11 -102 -34 -148 -51 -46 -17
-82 -28 -80 -24 2 4 16 32 31 64 l28 56 92 36 c239 92 247 95 247 79z"/>
<path d="M1069 480 c-14 -4 -100 -42 -192 -85 -91 -42 -170 -74 -176 -70 -7 4
-8 0 -5 -10 7 -16 -103 -128 -193 -198 -88 -67 -37 -60 112 15 90 46 102 50
130 40 l30 -12 -23 18 -23 18 46 22 c25 12 52 22 60 22 8 0 15 4 15 8 0 5 31
21 69 37 39 15 81 39 95 54 24 26 91 140 84 145 -1 2 -15 0 -29 -4z m1 -25 c0
-3 -16 -31 -35 -61 -32 -49 -45 -60 -113 -91 -42 -19 -142 -67 -222 -106 -80
-40 -148 -73 -152 -75 -3 -2 35 38 85 89 96 97 112 107 327 205 95 44 110 49
110 39z"/>
<path d="M436 472 c-3 -5 18 -26 46 -48 28 -21 74 -58 104 -82 51 -41 53 -42
67 -22 7 11 17 17 21 13 4 -4 4 0 1 8 -3 9 5 41 19 72 20 47 22 56 9 61 -23 9
-261 7 -267 -2z"/>
<path d="M1506 461 c-37 -6 -54 -14 -65 -31 -9 -14 -38 -50 -64 -82 l-48 -58
33 -2 c63 -3 192 4 213 12 12 5 65 45 119 89 l97 81 -118 -1 c-65 -1 -140 -5
-167 -8z m204 -41 c-128 -110 -127 -109 -245 -117 l-108 -6 57 71 c31 39 67
73 79 75 12 2 74 5 137 6 l114 1 -34 -30z"/>
<path d="M1259 401 c-63 -21 -140 -51 -170 -67 l-54 -28 50 -7 c85 -12 200
-10 217 4 23 17 108 119 108 129 0 15 -34 8 -151 -31z"/>
<path d="M1355 260 c-3 -5 1 -10 10 -10 22 0 95 -38 95 -50 0 -6 3 -9 8 -8 4
2 80 -34 169 -80 89 -45 165 -82 168 -82 15 0 -6 22 -122 128 l-123 112 -99 0
c-56 0 -103 -4 -106 -10z"/>
</g>
</svg>
